<?xml version="1.0" encoding="UTF-8"?>
<svg id="Layer_1" xmlns="http://www.w3.org/2000/svg" version="1.1" viewBox="0 0 68.5 77">
  <!-- Generator: Adobe Illustrator 29.5.1, SVG Export Plug-In . SVG Version: 2.1.0 Build 141)  -->
  <defs>
    <style>
      .st0 {
        fill: #ce7d63;
      }

      .st1 {
        fill: none;
        stroke: #0f0f0f;
        stroke-linecap: round;
        stroke-linejoin: round;
        stroke-width: 1.5px;
      }
    </style>
  </defs>
  <path class="st0" d="M38,13h0c14.36,0,26,11.64,26,26h0c0,14.36-11.64,26-26,26h0c-14.36,0-26-11.64-26-26h0c0-14.36,11.64-26,26-26Z"/>
  <path class="st1" d="M39.5,31.5l7.5,7.5M47,39l-7.5,7.5M47,39h-18"/>
  <path class="st0" d="M67.67,63.63c-5.14,5.97-12,10.22-19.63,12.17-7.63,1.95-15.68,1.51-23.06-1.25s-13.73-7.73-18.19-14.23C2.31,53.83-.05,46.12,0,38.24c.05-7.88,2.52-15.55,7.08-21.99,4.55-6.43,10.97-11.31,18.38-13.98,7.41-2.67,15.47-3,23.08-.94,7.61,2.05,14.4,6.39,19.46,12.43l-1.32,1.1c-4.84-5.77-11.33-9.91-18.6-11.88-7.27-1.96-14.96-1.65-22.05.9-7.08,2.55-13.21,7.21-17.56,13.36-4.35,6.14-6.71,13.48-6.76,21-.05,7.53,2.21,14.89,6.48,21.09,4.27,6.2,10.33,10.95,17.38,13.59,7.05,2.64,14.74,3.06,22.03,1.2s13.84-5.92,18.75-11.63l1.3,1.12Z"/>
</svg>